/* XPM */
static char *_002[] = {
/* columns rows colors chars-per-pixel */
"50 50 241 2 ",
"   c #073B33",
".  c #115C2F",
"X  c #0B4832",
"o  c #0D5934",
"O  c #125632",
"+  c #125E32",
"@  c #1A692E",
"#  c #1C732F",
"$  c #1F7F2E",
"%  c #0E6135",
"&  c #126433",
"*  c #1D6532",
"=  c #156C32",
"-  c #1C6C30",
";  c #147433",
":  c #1B7431",
">  c #167C34",
",  c #1B7B32",
"<  c #157038",
"1  c #26742E",
"2  c #2E762E",
"3  c #247D2E",
"4  c #2A7C2D",
"5  c #256A31",
"6  c #267631",
"7  c #367B34",
"8  c #168133",
"9  c #1B8533",
"0  c #1C8C34",
"q  c #198B38",
"w  c #1D9434",
"e  c #1E9A35",
"r  c #1A9339",
"t  c #1C9B39",
"y  c #22832E",
"u  c #2C832E",
"i  c #278B2D",
"p  c #2B8B2E",
"a  c #32842E",
"s  c #338D2E",
"d  c #3C8D2E",
"f  c #29942E",
"g  c #2D9B2E",
"h  c #34942E",
"j  c #3C942D",
"k  c #349C2E",
"l  c #3C9B2D",
"z  c #228432",
"x  c #2B8332",
"c  c #238B32",
"v  c #298D32",
"b  c #3D8433",
"n  c #368932",
"m  c #239432",
"M  c #2B9432",
"N  c #249C33",
"B  c #2B9D31",
"V  c #229D38",
"C  c #339432",
"Z  c #3B9433",
"A  c #339C32",
"S  c #3B9B32",
"D  c #3C933A",
"F  c #1DA237",
"G  c #2EA32F",
"H  c #2EA92F",
"J  c #34A32F",
"K  c #3CA32E",
"L  c #34AB2E",
"P  c #3BAB2E",
"I  c #3CB32E",
"U  c #38B42F",
"Y  c #25A233",
"T  c #23A737",
"R  c #2BA332",
"E  c #2DAB32",
"W  c #32A532",
"Q  c #3CA432",
"!  c #32AB31",
"~  c #3AAC32",
"^  c #2AB434",
"/  c #37B532",
"(  c #3BB231",
")  c #428D2E",
"_  c #46952E",
"`  c #449D2E",
"'  c #4B9D2E",
"]  c #519C2C",
"[  c #488B36",
"{  c #459333",
"}  c #4C9533",
"|  c #449B33",
" . c #4B9C32",
".. c #489D3A",
"X. c #539C34",
"o. c #57993A",
"O. c #639E39",
"+. c #44A42D",
"@. c #4CA32D",
"#. c #43AC2D",
"$. c #4BAC2E",
"%. c #57A62E",
"&. c #55AC2E",
"*. c #43B32E",
"=. c #4CB32E",
"-. c #44B92E",
";. c #4CBC2E",
":. c #52B42E",
">. c #5CB32E",
",. c #54BC2E",
"<. c #5BBC2E",
"1. c #42A533",
"2. c #4AA333",
"3. c #43AC33",
"4. c #4CAB33",
"5. c #4AAA3A",
"6. c #54A533",
"7. c #5BA433",
"8. c #53AB34",
"9. c #5BAD33",
"0. c #5CA53B",
"q. c #54A839",
"w. c #5CAD3A",
"e. c #44B331",
"r. c #4BB532",
"t. c #44B934",
"y. c #4DBA33",
"u. c #54B433",
"i. c #5CB333",
"p. c #52BB31",
"a. c #5CBC32",
"s. c #5AB239",
"d. c #62A72E",
"f. c #64B52E",
"g. c #6AB62D",
"h. c #64BC2E",
"j. c #6BBE2E",
"k. c #75B82E",
"l. c #73BC2E",
"z. c #63A533",
"x. c #62AB34",
"c. c #64A43B",
"v. c #6BA839",
"b. c #6BAA3C",
"n. c #75AC3C",
"m. c #64B333",
"M. c #6BB333",
"N. c #64BC33",
"B. c #6CBC33",
"V. c #69B53A",
"C. c #6CBB3B",
"Z. c #72B433",
"A. c #77B737",
"S. c #7CB43C",
"D. c #73BB3D",
"F. c #7BBB3C",
"G. c #4AC22E",
"H. c #54C22F",
"J. c #5BC32E",
"K. c #54C92F",
"L. c #5DC92F",
"P. c #47C031",
"I. c #4DC133",
"U. c #5CC232",
"Y. c #58C531",
"T. c #63C32E",
"R. c #6BC42E",
"E. c #64CA2F",
"W. c #6CCA2E",
"Q. c #73C52E",
"!. c #7AC32F",
"~. c #74CB2E",
"^. c #7BCC2E",
"/. c #6ED12F",
"(. c #76D02F",
"). c #7CD32F",
"_. c #7CD92F",
"`. c #63C432",
"'. c #6BC532",
"]. c #64CB32",
"[. c #6DCA31",
"{. c #6BCD3A",
"}. c #7CC433",
"|. c #73CB32",
" X c #7BCB32",
".X c #76C438",
"XX c #6FD237",
"oX c #74D132",
"OX c #7CD132",
"+X c #7BD539",
"@X c #599041",
"#X c #639C42",
"$X c #66A743",
"%X c #78AD44",
"&X c #79B444",
"*X c #7BC341",
"=X c #85BA3E",
"-X c #83CD2E",
";X c #8ACE2F",
":X c #84D22F",
">X c #8BD32F",
",X c #83C335",
"<X c #83CC33",
"1X c #8BCD32",
"2X c #88C83A",
"3X c #93CE33",
"4X c #96CC3B",
"5X c #84D331",
"6X c #8CD432",
"7X c #83DA31",
"8X c #8CDB32",
"9X c #8AD73B",
"0X c #92D432",
"qX c #99D631",
"wX c #94DA31",
"eX c #9CDA32",
"rX c #97D63B",
"tX c #A3DB34",
"yX c #A7DA3A",
"uX c #B1DD3A",
"iX c #8EE132",
"pX c #9AE235",
"aX c #A8E337",
"sX c #B8E739",
"dX c #BFF03D",
"fX c #82AD49",
"gX c #86BA46",
"hX c #92BA51",
"jX c #89C543",
"kX c #9DCD43",
"lX c #96C948",
"zX c #93CE4D",
"xX c #99D743",
"cX c #A9CE49",
"vX c #A6D746",
"bX c #B5DA48",
"nX c #ABD253",
"mX c #ABE443",
"MX c #B7E444",
"NX c #C2E346",
"BX c #D5ED4F",
/* pixels */
"oX[.[.[. X^.^.j.h.j.c.z.0X>X1XBXbXtXtXk.qXtXtXyXtXqXeXtXtX3X1X=XA.0X0X>X>X0X0XkXv.!.^.Q.'.|.|.[.[.OX",
"i.a.T.`.<X X>.n.v.{ A.yX6X^.k.sXsXyXeX] k.eXqXqX;X-X6XqXuX3XlXNXn.1X1X2XS.-XtXyX%.Q.jXcXx.'.|.T.<.T.",
"=XcXD.a..X|.' A.sX4Xj.>X:Xz.cXyXtXeXqX!.1XqX1X4Xg.j }.eXtXrXNXsXd.-XrXMXA.l.8XB.>.<XuXtX_ <X XD.gX .",
"{ pXvXm.9X|.>.d 6XwX5XM.A.) 3XsXqX6X6XZ.2X6X,XNXz.] uXeXqXtXaXqX} }.0X;Xd M.j.R.Q.5XwXm.d !. XvXZ.{ ",
"x >.).R.~.~.B.>.h.).~.X.bXn.@.qX;XrXqX7.uXtX;XaX3X3XeXvXyXqXeX-X4X1X^.>.M.bXx. XS.g.^.9.B.R. X XZ r.",
"U.9.F.B.R.T.,X6Xj.D.|.l k.aX<X-X-Xl.wXf.!.eX0XwXqX0X0XtXeXMXeX>XqX-X}.F.1XwX&.wX,Xh.~.Q.M.@.T.<.r.I.",
"r.7.sXvX XT.h.6X9.cXnXj.` !.6X5X:X^.-X;X^.>X<X6X!.<X>X6X0XqX6X4X<X1XbXyXg.|.R.:XR.Q.2XvXo.s J.,.u.4.",
";.u  X7XOXR.T.~.@.qXMX6X~.f.l.-X:X-XF.2X;Xk.=XkXb l.0X,X^.6X6XyX<X0XqX>XR.R.B.~.~. XwXM.4 =.J.*XvXc.",
"H.M | ~.>.F.'.T.$.Q.8X5Xj.&XnXA.<X6X}.NX4X^.k.tXz.!.tXl.!.:X5X:X:X^.Q.!.F.nXgXf.~.~.T.$.i.N.N.5XR.a ",
";.H.1.,.+.}.}.&XD.h.|.(.>.Z.dXvX,X0X!.qXqX>X-X>X-X-X1XjXn.!.^.^. XlXv.v.bXdXk.' m.h.R.W.5X6XT.<.8.u.",
"-.U.L.p.K j %.,XmX|.W.N.@.) eXeX-XZ.vX5X:X:X:X6X-X-XrXMX1X9.jXM.jXMXk.,XaXwX7 v.4X&.T.'.[.W.'.zXlX} ",
"C.;.H.` %XO.4 %.pX5X>.%XhX[ Q.>X^.} tX6X:XZ.F. X-X:XwXeXl.S.MXk.6XeXR.).7X_ d 8Xl.o.&X} `.T.OX8X9.u ",
"[.H.H.s } eXx.s ~.).:.z.sXvX}.).^. .6.:X^.7.bXlX~.^.:X5X X0XwXR.).).W.~.x.7 T.~.B.kXc.a J.T.E.=.3 K ",
"H.H.| %XfXZ.~.>.h.OX<.4 }.wX6X^.~.~.R.~.R.d k.aXj.f.m.m.(.).).W.W.N.T.5XF.{ E.E.W.@.3 4.U.<.,.1.e.y.",
";.;.s ,XpX6X~.W.W.oXJ.7 [ R.~.~. X~.Q.R.O.fX0.:X>.[ cX7.m.m.W.R.gXnXv.W.j 4.N.<.,.#.,.`.U.,.,.`.U.'.",
"-.a.Q ` (.R.m.m.>.J.$.S.rXj.W.h.5Xf.=XB._ yXyX^.h.F.qX7.kXz.T.2XmXaX7.<.<.<XkX' u.,.J.[.`.N.0.=.H.Y.",
" .w.p.P J.+.&XMXlXN.:.@.).~.f.b.M.@.3XrX@.' 5X^.Q.^.~. X X+.R.6X8X5X) T.W.OXj.b.b.l $.;.L.rXx.+.H.U.",
"S.rX|.H.,.j 1 }.pXOXJ.#.T.>.' rXvXc.g.:X~._ @.W.T.h.C.'.<.<.W.W.[.>.h |.|.T.J.W.X.fXhX .H.L.#.r.,.J.",
"4 T.E.,.{ =Xv.) <.W.T.J.$.b.v.f.8X5Xh.W.W.R.:.T.` ) kXi.,.i.9.J.J.#.=.J.:.<.J.'.vXmX1Xj ;.;.U.C.l ;.",
"#.*.;.y.4 x.iXoX,.H.J.J.:.@. X,.W.W.T.T.'.|. XW.@.%.5X,XX.zXhX#.,.=.,.N.lX6.J.OX8X7Xd h ;.;.H.#.P -.",
";.r.'.H.h 5 ` J.L.,.w.*XJ.<.<.,.J.&.&XV.<.T.'.W.J.T.[.|.F.MX4Xj gXo.:.xXaX7.<.W./..X@Xk q.2.-.-.p.5.",
"e.P p.;.{ 2Xi.+.#.l v.vX[.J.6.lXC.j yXbX.X:.0.6.@.,.T.T.6XwX X6.2Xa J.7X7X_ ,.L.T.rXS.[ vX6.P 3.r.e.",
"D.'.;.;.s h./.E.'.s _ :X[.u.d eXmXX.d.pX6X2.gXcX7 j J.T.~.(.R.,.u s L.].:.3 ;.H.E.(.&.N.|.4 6.v.a q.",
"a p.=.X.@XO.N.J.:.q.n T.T.<X .@.7X|.j [.(.<.j 8Xm.' T.T.|.T.J.8.b *.H.;.y b z.@.H.J.=.a.0.b u.:.x.rX",
"q.k b kXmXrXoXJ.j jXjXa.J.E.<.=.J.E.=.$.J.J.K #.T.J.J.T.'.,.J.|.<X;.-.*.;.|.<Xd ;.H.'.9XyXlXb =.L.W.",
"[.-.: 6 ' >.J.J.l ` oX].H.*.o.F.J.J.J.;.;.,.$.+.;.J..X,.,.,.:.,.H.a.jX7.#.=.#.K H.H.E.T.' @ # =.;.H.",
"-.;.*.C # # p P ;.#.;.H.H.#.7 <X[.J.=.c.gXX.gX&Xs =.,.;.;.B.=X2.,.|.pXM.A.z.#.;.;.G.,.l x @Xb r.`.;.",
"I I -.p.| q.*.;.].$.V.C.p.-.s h ,.H.#.} aX4X5X8X{ #.`.,.=.N.N.+.J.J.T.W.7X%.b c.X.-.H.I..X9Xa *.-.*.",
" .w.3.L } vX.X;.;.l 2XaX<X,.-.#.*.=.Z + ' OX[.].:.=.U.u.gX7.P -.p.jXb.,.E.x.lXmXc.K ;.;.E.j . # # [ ",
"7 <XU.P 3 &.oXU.-.J ' _./.J.=.4.*.S n.[ & s =.,.;.;.=.D.pX_ | w.a.rX' *.H.|._.<.3 P -.-.J : Z  .Z +X",
", A *.S x 3 *.-.I I i $.H.G.` jXV.A 2.J.P p f *.#.#.=.].E.4 i.].,.=.4 K -.G.a.#X7 L U U e.r.-.*.-.K.",
"! W W Q e.S 2.8.*.U C } p.-.k %.[.e.J P -.#.Q P 3 u -.;.K J G.;.-.u.&Xd I -.XX.X2 n o.S y.3.L L L U ",
"! ! t.! a S.rXoXH.I u 9.`.-.P i *.I P e.y.h %X%X6 k -.*.U I I *.*.H.=.g U -.P @ @ C.2X7 J L Q q.0.| ",
"E B 3.! @ 5 a l k k g y g P L L J ..$XQ e.M  .9X[ J *.I I r.Q L U P k ~ ( R : = J P 1 # L P N.xXxXv.",
"~ ! R E B z ; + 1 k L e.P J ..Q C gX2Xp L J z =.*.L Q | *.`.{ | P 4.M ( e.! ! L J 4 $ R L I G.K.S O ",
"`.~ ! B q.p.W 6.a.( E A ! f A.Z.b OXN.#X0.W G G L S jXb.k *.jXF.p f B ! ( a.h ! I a.K Q 5.J G , + , ",
"*.( ! B c N g a.( ! ! B Z n a a.l J.| 2XxXC.J L B 0.+X` i e.].,.7 b.[ B E G N H L U P B.b.f N m R R ",
"G G G R R u.W ~ R C C 1 n.jX .K J -.y Z L.H.~ ! W e.;.3 f L I -.`.N.5 x 0.&X$XM ! ! L e.3 m E ~ R R ",
"S $X$X1.B ~ W E v %XD.6 * &.,.~ W L m & M L ! W W ! B 9 R A G L k - 3 i.+X9XD.x ( e.R N 9 m R 3.N N ",
"c.+X].-.E R R R 9 s K.~ * & M E B A B m 0 B S R N N B R r.w.m N 0 N L I G.r.* 6 C N N B q.$XD m B 5.",
"O : v M N Y Y m 7 1 g M s.W m o.gX.Xe.E N 8.D.B m C ~ W ! R m M m Y E / A + 2 D.c.z B ! y.u.7 9 ! I.",
"9 > > 0 N m 1.m 7 3.G N R R n *XXXy.P E B ~ W N m S e.W R R ~ &X@X9 Y ~ W c t.-.- 9 N m , & & w Y N ",
"Q R Y N N w z N > , N N W ~ - - @ = x 1.E R N Y N N R N N R ! C * 0 N N N Y R : X 6 v m m N 3...v N ",
"t.R Z q.B N e m N N N Z .XP.R 9 9 0 2.r.R B Q E Y N R ~ A N 8 = z N W s.{ m m 0 B 4.6 0 N m A 5.7 9 ",
"m @ c.r.Y N C w.y.E m 2.K.P./ R N 0 @ y N M 3.Y 9 m R I.V.m N 3.q.m N ~ { , N N N y b #XD 9 ; % o 9 ",
"; & + ; 0 0 3.I./ N , p J i # , m N 1.( Y m N w & , N c p z N Y v m B : . 9 N m m g t.{.jX{ w e w m ",
"E V w e N ; c , = > =     X : B Y M C.~ N V N V 0 w R m > e N N N Y ! a.v N E e.| 8 ; c ( 3.3 e e Y ",
"E V V ~ N &   o 8 M W 9 9 w B y.V 8 # 8 e w Y T V N ! r.e E W N Y E S C y m Y / a.C 8 o X X & V M 9 ",
"> r R ( V q 9 e w 3./ ^ N r N R e e q F e 0 T Y q e V R w W t.e w E ( - = e e ^ ^ E q w ; % 8 T ( 6 ",
"t r V F > 9 e t 0 ^ ^ V = r t t q t r T > q T q < t q r r w t w ; m ^ c 9 F > e ^ T 8 t q t q q ^ A "
};
