/* XPM */
static char *_d8a615ac6154ac2c503befe644fbe8cVJ9diRLY7bhLk4po[] = {
/* columns rows colors chars-per-pixel */
"50 50 256 2 ",
"   c #58340E",
".  c #65380D",
"X  c #713D0F",
"o  c #653B13",
"O  c #01473A",
"+  c #045836",
"@  c #187D2E",
"#  c #066936",
"$  c #156E32",
"%  c #097835",
"&  c #1B7532",
"*  c #147832",
"=  c #267732",
"-  c #2E7D31",
";  c #69400E",
":  c #78450D",
">  c #684519",
",  c #784915",
"<  c #554E22",
"1  c #6E5024",
"2  c #765A26",
"3  c #4C702F",
"4  c #5A7827",
"5  c #7A6F31",
"6  c #687831",
"7  c #7B7635",
"8  c #834C0E",
"9  c #8B530E",
"0  c #965A0E",
"q  c #854E14",
"w  c #8D5411",
"e  c #955911",
"r  c #9C6110",
"t  c #A36514",
"y  c #AB6C16",
"u  c #AA6B18",
"i  c #AC731B",
"p  c #B2741A",
"a  c #B6791B",
"s  c #8B6931",
"d  c #896A34",
"f  c #8B7939",
"g  c #947639",
"h  c #BA7821",
"j  c #C07E1C",
"k  c #967A43",
"l  c #37B71E",
"z  c #3DBC1E",
"x  c #0D8B2F",
"c  c #17892E",
"v  c #1A932D",
"b  c #159E2E",
"n  c #1C9C2D",
"m  c #0B8835",
"M  c #128432",
"N  c #198832",
"B  c #0D9837",
"V  c #139333",
"C  c #199533",
"Z  c #149D34",
"A  c #1A9D32",
"S  c #278A2C",
"D  c #358B2B",
"F  c #28972B",
"G  c #239D2D",
"H  c #38982A",
"J  c #298632",
"K  c #388734",
"L  c #289830",
"P  c #379B32",
"I  c #15A42D",
"U  c #1CA32D",
"Y  c #1DAA2B",
"T  c #0EA436",
"R  c #13A434",
"E  c #1AA432",
"W  c #13AB34",
"Q  c #1BAB33",
"!  c #19B631",
"~  c #2DAC26",
"^  c #23A52B",
"/  c #28A628",
"(  c #24AB2B",
")  c #2BAD2B",
"_  c #34A426",
"`  c #34AC24",
"'  c #39A828",
"]  c #2CB225",
"[  c #26B729",
"{  c #2CB12B",
"}  c #32B424",
"|  c #3CB523",
" . c #3CBA23",
".. c #3AB826",
"X. c #33B42A",
"o. c #39A432",
"O. c #30AD31",
"+. c #449A1C",
"@. c #4FA81E",
"#. c #45B81E",
"$. c #4CBD1E",
"%. c #58B81D",
"&. c #66BC1C",
"*. c #77B51D",
"=. c #518E2F",
"-. c #479A2A",
";. c #428B34",
":. c #489734",
">. c #6B8E2D",
",. c #48A627",
"<. c #43AC22",
"1. c #52AC23",
"2. c #55A629",
"3. c #44BC22",
"4. c #4BBC23",
"5. c #47B628",
"6. c #57B725",
"7. c #4BA532",
"8. c #57A534",
"9. c #44B730",
"0. c #56B533",
"q. c #5CB332",
"w. c #68AD28",
"e. c #77AB25",
"r. c #68B726",
"t. c #78BA29",
"y. c #68AC38",
"u. c #72AD34",
"i. c #67B535",
"p. c #78B737",
"a. c #3CC01E",
"s. c #2FC224",
"d. c #44C21C",
"f. c #4CC31B",
"g. c #4AC71A",
"h. c #57C616",
"j. c #5CCC15",
"k. c #54C41B",
"l. c #5CC41B",
"z. c #54C91A",
"x. c #5BCA1A",
"c. c #59D118",
"v. c #75CE0E",
"b. c #74D40D",
"n. c #7DD40E",
"m. c #67C416",
"M. c #63CB14",
"N. c #6BCC14",
"B. c #64C31B",
"V. c #6BC41B",
"C. c #64CA1B",
"Z. c #6BCB1A",
"A. c #73CB14",
"S. c #7CCC14",
"D. c #76C619",
"F. c #7CCA1C",
"G. c #69D114",
"H. c #74D114",
"J. c #7BD413",
"K. c #79D518",
"L. c #4CC426",
"P. c #57C226",
"I. c #67C626",
"U. c #6ECB2B",
"Y. c #76C627",
"T. c #79D427",
"R. c #7BC536",
"E. c #569144",
"W. c #659B43",
"Q. c #72AF43",
"!. c #8CB21C",
"~. c #8C8F36",
"^. c #97863A",
"/. c #A1883A",
"(. c #A89839",
"). c #84BB37",
"_. c #90B131",
"`. c #A4B137",
"'. c #C3851D",
"]. c #C58A21",
"[. c #C68923",
"{. c #CD9425",
"}. c #CD9628",
"|. c #D19A27",
" X c #D39C2B",
".X c #D39F37",
"XX c #D5A22C",
"oX c #D9A52E",
"OX c #DCAB2F",
"+X c #DAA532",
"@X c #DCAB33",
"#X c #DAA836",
"$X c #DFB13B",
"%X c #E1AE35",
"&X c #E0AE39",
"*X c #E3B23A",
"=X c #88DB06",
"-X c #84D40D",
";X c #8CD60C",
":X c #85DA0B",
">X c #8DD90C",
",X c #95DC05",
"<X c #93D70C",
"1X c #93DB0C",
"2X c #9CDE0B",
"3X c #84CB19",
"4X c #92CF1A",
"5X c #82D412",
"6X c #8BD314",
"7X c #88D719",
"8X c #94D514",
"9X c #95DB13",
"0X c #99DB13",
"qX c #9BDB1C",
"wX c #A2DE0B",
"eX c #A3DD16",
"rX c #93E30F",
"tX c #99E309",
"yX c #A7E308",
"uX c #A5E10B",
"iX c #B7E807",
"pX c #ABE219",
"aX c #B4E515",
"sX c #BFF01B",
"dX c #87C926",
"fX c #96CD28",
"gX c #88D525",
"hX c #98D826",
"jX c #84C333",
"kX c #8BC738",
"lX c #95CC36",
"zX c #8AD534",
"xX c #99D635",
"cX c #A5D928",
"vX c #A8D939",
"bX c #B1D935",
"nX c #97E32B",
"mX c #AAE32F",
"MX c #B7E729",
"NX c #B5E737",
"BX c #C5F31E",
"VX c #C3EF24",
"CX c #C4E934",
"ZX c #9C8645",
"AX c #9B9744",
"SX c #A19544",
"DX c #86B745",
"FX c #96BC46",
"GX c #AEBD43",
"HX c #E4B541",
"JX c #95C748",
"KX c #A9D745",
"LX c #ADD34C",
"PX c #B6DB42",
"IX c #BEE644",
"UX c #CBE847",
/* pixels */
"K.H.H.K.gX5X5XA.V.A.y.w.2X,X4XUXUXaXuXD.wXwXuXMXpXwXuXuXpXhX8XkXdX0X0X,X,X2XqXvXt.S.-XF.D.J.J.H.H.5X",
"r.I.N.Z.7X5X&.p.p.-.dXpX9X3XD.iXVXaXwX1.D.wXwXwX<X;X1XuXaXhXKXUX).8X8XlX).6XpXpX1.S.lXKXr.A.K.N.m.N.",
"kXKXR.B.Y.K.1.dXVXcXD.,X>Xw.PXcXuXwXwX3X8XwX4XhX*.+.3XuXuXcXCXiXw.;XqXCX).D.,XD.&.gXMXeX2.gXgXR.).2.",
"-.pXvXr.hXJ.B.-.9XtX1Xt.p.-.eXsXwX0X0Xt.fX0X4XCXw.2.MXeXeXuXiXwX2.dX2X<XH t.D.A.S.1XtXr.H J.gXmXt.,.",
"J B.=XA.J.J.Y.&.m.:Xn.2.PXp.1.2X<XhXqXw.MXeX<XiX0X0XuXNXbXeXeX6XvXfX=X&.t.NXr.gXjXD.-Xr.D.A.5X5XH 4.",
"C.r.jXY.A.N.dXhXA.R.F.+.*.aX6X;X;XS.wX&.3XwX2X2X2X2X2XpXuXNXcX,X2X;XdXjX8X2X&.qXdXV.-XF.Y.1.N.l.4.z.",
"P.w.MXmXgXN.V.0Xr.PXLXA.@.3X1X1X1X-X;X<X-X<X6X9X3X6X<X1X2XuX0XhX6X4XPXmXD.J.A.;XA.S.zXvX8.H M.l.P.6.",
"k.D 5X,X:Xv.N.n.1.0XMXhXn.V.F.;X>X;XjXlX<XF.lXvX:.F.qXdX5X1X2XcX6X0XeX<Xv.D.D.J.n.5XqXY.D %.C.kXKXy.",
"x.H ,.J.B.jXD.N.%.F.tX>XA.).LXjX4XqXdXUXhX-X3XpXw.3XuXF.S.>X>X>X;X5XS.S.jXLXJX&.n.n.N.4.r.Y.V.7XS.D ",
"z.x.5.l.1.dX3Xp.R.Z.J.n.&.t.BXPX4XqX3X2XeX1X;X<X;X;X<XkX).S.-X-X3XKXp.u.IXBXdX1.r.V.A.H.7XhXZ.B.6.6.",
"f.C.C.k.<.-.%.dXNXT.H.V.1.-.uXuX;Xt.vX6X<X>X>X1X;X;XhXCXfX&.kXt.xXCXD.dXuXtXD u.cX%.N.H.H.H.Y.JXKX2.",
"Y.k.x.,.Q.u.D w.uX7XB.).JX:.F.,X-X2.eX9X;XY.jX3X;X;X2XuX3X).CX*.9XuXA.:X:X,.H 1XD.y.DX2.Z.N.gXrXr.S ",
"K.x.x.H 2.eXr.H 5X:X%.w.sXbXdX:X-X1.6.;X5Xw.LX`.!.!.!.!.3X0XtXA.:X=Xv.J.r.K Z.n.Y.vXy.D C.N.G.6.S | ",
"x.x.,.DXDXY.J.B.Z.5Xm.S 3XtX1X-X5X5XA.S.t.4 ~.(.(.(.(.^.>.!.3XH.H.I.Z.6XdX-.H.H.H.1.S 4.C.C.k.5.4.k.",
"z.z.H dXpX9Xn.v.H.K.M.;.=.A.n.J.5X5XF._.SXZX5 > > > > > d /.`.t.JXLXu.b.,.1.U.l.j.4.l.Z.C.l.l.Z.C.T.",
"$.I.<.,.:XA.Y.Y.B.M.%.jXhXA.v.N.6Xt.AX^.s > o q 8 , , : o 1 d ZXGXpXw.m.B.zXvX1.6.l.M.Z.Z.I.i.$.j.j.",
"2.i.P.#.M.,.).IXKXI.%.%.:Xn.V.p.p.AXk , X : w t t y t t 0 8 ; , ^._.-.Z.A.5XS.t.p.<.4.k.C.nXr.<.x.C.",
").xXT.j.h.' - 3XeXgXM.#.N.B.2.vXSXg , : w t a '.'.'.'.j p t 9 ; > g >.F.K.N.M.H.8.DXJX2.j.G.#.k.k.M.",
"S N.G.l.-.kXu.-.l.v.M.M.%.p.).~.s o : e u '. X+XXXXXXX X{.a t 9 : o ^.e.%.l.M.Y.KXMXhXH h.z.I.R.<.z.",
"#.#.z.k.D r.tXJ.l.j.j.M.l.1.`.g o : 0 p ]. X@X@XoX%X%X@XXX{.a t w . 1 ^.FXw.M.5XrX=X-._ h.k.x.#.#.f.",
"g.4.T.z.' = ,.M.M.h.i.R.C.r.~.> . w u ].oX&X@X#X#X*X@XOXOXXX{.a 0 :   s `.w.M.b.b.R.E._ i.1.f.f.P.0.",
"3.| l.k.2.lXr.<.#.<.t.NXT.e.^.  q e a }.+X@X@X+X@XXXXX@X@X#X+X].t q . > (.=.j.G.N.hX).8.vX2.#.5.6.5.",
"R.U.f.g.H V.b.N.A.H ,.=XY.~.f   w t '. XoX@X&XXX+X{. X@X@XOX#X}.a 0 , > f 3 h.j.G.n.%.I.K.D q.t.D q.",
"H l.$.8.W.y.V.M.%.q.H N.e.(.> . w u '.@X&X@X@X X|.|. X#XXX@X@X+X].i w   2 6 >.1.h.M.$.I.i.;.6.%.r.hX",
"q.` ;.vXNXnX7XM.,.lXkXB.e.(.> , e a {.HX*X@XoXoX@XXXoXXX}.#X*X@X}.h u , 2 7 e.H z.x.Z.hXmXxX:.k.G.b.",
"K.f.N J 1.B.M.j.' ,.J.G.e.(.> : w p {.#XoXXX@X%XOXOX%XOXoXoX$X#X'.p i q 2 7 +.<.h.j.G.N.1.& @ $.z.x.",
"f.f.#.H M M F <.z.#.z.h.e.(.> : w p {.$X#XXX%X%X%XOX*X%X@X#X$X.Xa p r ; 2 7 +.h.h.z.k.' J W.;.L.I.f.",
"#.d.f.P.7.q.#.k.Z.4.p.R.w.(.1 . w p ].@X*XXX|.XX%X%X%X*X@X@X+X}.a i w > /.7 K y.8.$.j.z.T.hXD 3.f.#.",
"7.i.5.l 7.vXkXk.g.' fXmXlX~.g   9 r a }.&XXX}.oXOX*X#X#XoXXXXX}.a r , > ^.>.JXNXy.| f.z.G.,.# M N :.",
";.gXI.l S %.K.C.g.` 1.=XJ.e.^.> : w i ]. X+XoX@X@X%X@XXX}.|. X].p 0 X 2 ~.w.n.m.S z d.f.` N -.2.,.gX",
"N ' d.' D S #.d.d.z F $.j.%.6 s > 8 0 i ]. X@X@X@X%X@X#X+X X].p 0 9 , 2 =.k.I.Q.K l z z 9.0.d.#.d.c.",
"X.X.} | 4.<.0.6.#.z _ 8.6.f.;.ZXs . 8 0 i ].}.+X@X@X@XoX}.].p 0 8 . g < ,.f.T.zX- H y.,.P.5.} l l l ",
"X.X.4.} D jXhXK.z.z F r.Z.f.| 4 g > . : e i h ].{.{.{.].a i 0 : . 1 ZX3 | d. .* & U.zXK ` } | q.y.7.",
"{ ~ 5.} $ = H ' ' ` / v _ l l ` 6 g 1 . 8 e t y i i p y t e :   1 k =.|  .~ M % ` | S @ } | U.xXmXp.",
"| } ~ ] / S * # = _ | 5. .` 8.| H 7 f 2 o . X : : 9 8 : . . o 2 5 =.F 3.3...} l ` D c ~ l z z.j.' # ",
"Z. .} / q.P.} 6.I. .` ' } / p.p.;.dX>.7 d 5 1 o o , o > 2 5 d f ;.G / }  .I._ } a.C.<.| 0.} ~ N # M ",
"d. .} / v ^ _ x. .} } / o.P H C.,.j.,._.~.7 7 f g g g f 6 6 >.2.K p.:.^ ] ~ ^ ] } z <.Y.p.G ^ G / { ",
"] ] ~ ~ ) P.`  .~ P o.= ).lX2.| ` d.S -.m.%.-.4 4 4 4 3 D H <.$.U.I.= P y.Q.Q.H } } } 3.S G { 9.) ( ",
"o.Q.p.7.( ..} { L p.R.J & 6.h.| } } G # _  .} _ _ _ H N ) ' ~ l _ * S r.zXnXR.S 3.3.( ^ v U ) 9.^ Y ",
"i.zXT.L.{ ( ( { C H c.| & $ / ] ~ _ / U C / o.) ^ ^ / ( L.i.^ ^ n / } d.g.4.$ N H / / ) q.i.P U ( 0.",
"# @ L ^ / / ( G K = ~ _ r.X.G 8.JXR.4.] ( q.R./ n P ..X.} ) ^ G ^ ( ] ..' # K R.y.S / } L.P.K C X.P.",
"V m m V U n 5.G K 4.] ^ ) ] H zXT.z.| ) / | ` ^ U ' 5.X.( ( 5.JXW.v ( ..' v L.L.@ c ^ n M # % b ( ^ ",
"9.) Y Y Y A C E m M ^ ( O...* & * * L 5.~ ( ^ ( ( / ( ^ / ) } o.& v ^ U U ( ( M + J G U U ( 9.7.G U ",
"L.] o.0.) U R U ^ U U o.R.g.~ v V v 2.4.) ^ ,.{ ( ( ( 5.o.U c * v ^ } i.7.n U n / 4.J V U ^ _ 0.K V ",
"n & i.4.( E o.i.P.{ A 2.c.d. .( Y n * v ( G 9.( C A ( L.U.G Y 5.q.n ( | 7.N U ( ^ S ;.W.:.V m # # V ",
"m % # % Z C 9.L...^ M F ` F @ M U U 7...( U E E # c U n F v Y ( G U / N # v ^ U U ( L.T.zX7.b I I A ",
"{ Q Z R E * n c % m % O O + M ) ( G U. .Y U U Y A A ) G m b Y Y Y ( } I.F Y [ 3.7.x % S  .4.N I I ( ",
"{ E E X.Q # O # m G O.V V A ) P.Q V @ V Q b ( Q E E X.6.b ) X.U Y ] ' o.S U [ s.I.P m # O + # Y / V ",
"m Z O.9.E V B R A 9.a.[ E Z E ) R R B W R V ! Q Z E E ( Z O.L.I b [  .& % I I [ s.) B T m # m Y 9.J ",
"T Z Q Q m B R R C [ s.Q % Z R R B T Z ! m B ! B % W B Z Z Z E Z m E [ C B W m b ! ! x T B T B V [ o."
};
