/* XPM */
static char *_56810d95b8d461dfc638224e2a5278cx5yBBPguD5SljGei[] = {
/* columns rows colors chars-per-pixel */
"50 50 254 2 ",
"   c #271815",
".  c #321111",
"X  c #35172D",
"o  c #392637",
"O  c #313032",
"+  c #471719",
"@  c #511611",
"#  c #6C1C18",
"$  c #522612",
"%  c #6D2E15",
"&  c #4F1B29",
"*  c #651325",
"=  c #512C2C",
"-  c #5A2829",
";  c #492637",
":  c #473636",
">  c #56363A",
",  c #672C27",
"<  c #673727",
"1  c #68393A",
"2  c #743434",
"3  c #035138",
"4  c #334B3B",
"5  c #1A7E2E",
"6  c #066836",
"7  c #156E32",
"8  c #0A7835",
"9  c #187732",
"0  c #287734",
"q  c #327735",
"w  c #585510",
"e  c #4E4B30",
"r  c #684437",
"t  c #754838",
"y  c #725232",
"u  c #53643D",
"i  c #6F7336",
"p  c #3B1C41",
"a  c #193C49",
"s  c #34334B",
"d  c #4C354A",
"f  c #573B44",
"g  c #683647",
"h  c #31524C",
"j  c #295E64",
"k  c #2D5D6A",
"l  c #59524F",
"z  c #674947",
"x  c #774A46",
"c  c #78554C",
"v  c #705557",
"b  c #4F6E4B",
"n  c #6E684F",
"m  c #5F586B",
"M  c #526D70",
"N  c #716F6D",
"B  c #831A0E",
"V  c #863829",
"C  c #B03E2F",
"Z  c #9A5124",
"A  c #874836",
"S  c #8B4F36",
"D  c #95593C",
"F  c #8C6A39",
"G  c #AD6C3B",
"H  c #885747",
"J  c #8F534A",
"K  c #875958",
"L  c #AB554B",
"P  c #986749",
"I  c #876858",
"U  c #996857",
"Y  c #907559",
"T  c #AD6F50",
"R  c #8F5F69",
"E  c #8E6D6B",
"W  c #A67B6F",
"Q  c #C56D59",
"!  c #3ABA1E",
"~  c #0D8C2E",
"^  c #17882E",
"/  c #199B2E",
"(  c #0B8835",
")  c #178732",
"_  c #0D9837",
"`  c #159834",
"'  c #278A2C",
"]  c #348C2B",
"[  c #259A2C",
"{  c #38982A",
"}  c #298632",
"|  c #388734",
" . c #269736",
".. c #3B9833",
"X. c #1BA32D",
"o. c #19A72D",
"O. c #16A733",
"+. c #1AA532",
"@. c #13AD34",
"#. c #2CA927",
"$. c #23A52B",
"%. c #24AB2B",
"&. c #2BAD2C",
"*. c #38A827",
"=. c #29B428",
"-. c #32B424",
";. c #39B726",
":. c #29A633",
">. c #36A734",
",. c #37B137",
"<. c #409F1F",
"1. c #4CA81D",
"2. c #46B91D",
"3. c #4BBB1C",
"4. c #57B91D",
"5. c #65BC1B",
"6. c #74B71D",
"7. c #469B2A",
"8. c #438D34",
"9. c #4E9735",
"0. c #6F9237",
"q. c #47A726",
"w. c #52AC23",
"e. c #56A728",
"r. c #48B825",
"t. c #56B825",
"y. c #4BA433",
"u. c #58A732",
"i. c #44B730",
"p. c #59B433",
"a. c #68B627",
"s. c #76BA28",
"d. c #6DAD32",
"f. c #68AB38",
"g. c #67B436",
"h. c #78B738",
"j. c #3CC01E",
"k. c #2FC224",
"l. c #47C31B",
"z. c #4CC31B",
"x. c #56C817",
"c. c #5CCB15",
"v. c #54C41B",
"b. c #5CC41A",
"n. c #5CCA1A",
"m. c #58D016",
"M. c #72CF0E",
"N. c #74D60E",
"B. c #7DD40E",
"V. c #63CB14",
"C. c #6BCC14",
"Z. c #68C41A",
"A. c #64CA1B",
"S. c #6BCB1B",
"D. c #77C917",
"F. c #69D114",
"G. c #73D214",
"H. c #7CD413",
"J. c #79D519",
"K. c #4BC426",
"L. c #57C226",
"P. c #5DCE3C",
"I. c #66C626",
"U. c #75C627",
"Y. c #79D327",
"T. c #6CCF33",
"R. c #7AC536",
"E. c #33924F",
"W. c #37A747",
"Q. c #338175",
"!. c #54914D",
"~. c #6D9548",
"^. c #4CAA4A",
"/. c #72AC4C",
"(. c #4C9C6A",
"). c #6B906E",
"_. c #73B96C",
"`. c #6FC354",
"'. c #66C26F",
"]. c #8AB42B",
"[. c #98B720",
"{. c #84BB38",
"}. c #89D80C",
"|. c #96DB0B",
" X c #83CD18",
".X c #93CE1A",
"XX c #86D615",
"oX c #97D916",
"OX c #A2DE0B",
"+X c #A3DB16",
"@X c #98E30A",
"#X c #94E411",
"$X c #A7E209",
"%X c #A9E317",
"&X c #B6E610",
"*X c #88C826",
"=X c #89D526",
"-X c #98D826",
";X c #87C536",
":X c #95CD36",
">X c #8BD535",
",X c #98D736",
"<X c #A5D928",
"1X c #A6D838",
"2X c #B2D934",
"3X c #97E32B",
"4X c #AFE62D",
"5X c #B4E739",
"6X c #C4EC2A",
"7X c #939856",
"8X c #8CB44C",
"9X c #908A70",
"0X c #B18A70",
"qX c #96B269",
"wX c #B5B275",
"eX c #CC904C",
"rX c #CE926E",
"tX c #D9A879",
"yX c #EDAF73",
"uX c #95D148",
"iX c #A8D842",
"pX c #ADD54A",
"aX c #BEE644",
"sX c #9BCE6C",
"dX c #ADD372",
"fX c #CEEB4B",
"gX c #C1DB67",
"hX c #6C7A87",
"jX c #877D8F",
"kX c #6B8E96",
"lX c #948E8C",
"zX c #A98E8A",
"xX c #94AE8D",
"cX c #ACAD90",
"vX c #90B0B4",
"bX c #A8ABAD",
"nX c #CA9B89",
"mX c #D2A990",
"MX c #F8BA88",
"NX c #EBB390",
"BX c #C9B3AD",
"VX c #B1CF8E",
"CX c #A0D39E",
"ZX c #B8C8A8",
"AX c #FBC490",
"SX c #CCD6A3",
"DX c #D2C9B4",
"FX c #AABFC1",
"GX c #BCCBCC",
"HX c #CBD3CF",
"JX c #E8D9D0",
"KX c #D1E8CD",
"LX c #E9E9D8",
"PX c #F2F3EB",
/* pixels */
"J.G.G.J.=XXXXXD.Z.D.d.d.|.|..XfXfX&X$XD.OX$X$X4X%XOX$X$X+X-X.X;X*XoXoX|.|.|.oX1Xs.H.}.D.D.H.H.G.G.XX",
"a.I.C.S.XXXX5.h.h.7.*X%X|. XD.&X6X&XOXw.D.$XOXOX|.|.|.OX&X-XpXfX].oXoX:X{.XX%X%Xe.D.:XiXa.D.J.C.Z.C.",
";XiXR.Z.Y.J.w.*X6X<XD.|.}.a.iX<X$XOXOX X.XOX.X-XD.<. XOX$X<X6X&Xa.}.oX6X].D.|.D.a.=X4X+Xe.=X=XR.{.e.",
"7.%X1Xa.-XH.Z.7.oX@X|.s.h.7.+X&XOXoXoX{.qXwX9X< c 9XwX1X+X$X$X+Xe.*X|.|.{ s.D.M.H.|.@Xs.{ H.=X1Xs.q.",
"} Z.}.G.H.G.U.5.Z.}.B.e.aXh.w.|.|.-X-X~.0X0Xr < W H y Y 7X<X$XXX1X-X}.5.s.2Xa.=X;XD.}.a.D.M.XXXX{ t.",
"A.a.;XU.G.C.*X-XD.R.J.<.6.&X}.}.}.D.+X7XU r $ $ A U U U c Y 7X.XOX}.*X;X.X|.5.oX*XZ.B.D.U.w.C.A.r.x.",
"L.f.4X4X=XC.Z.|.a.pXpXD.1. X|.}.|.}.[.y U nX0XP V A J x H z & n *XoXaX4XD. XG.}.D.H.=X1Xu.{ C.b.L.t.",
"v.] XX|.}.M.C.B.w.oX5X-X}.Z.D.}.}.}.0.$ < S D T T L , , $ + X   0.oX+X|.M.D.D.H.B.XXoXU.] 4.A.;XiXd.",
"n.{ q.N.Z.;XD.C.4.D.@X}.D.{.pX;X*X].y - R U P S D T D 2 - X X o n ].D.H.;XpX8X5.B.B.C.t.a.U.Z.XXD.] ",
"x.n.r.b.w.*X Xh.;XS.H.B.5.s.[.iX].P - . x 0X0XnXP A S , + > ; o p l /.h.aX6X Xe.s.Z.G.G.XX-XS.Z.t.t.",
"z.A.A.v.q.7.4.*X5XY.G.Z.w.7.[.[.U < @ . $ H A P J A < - + ; f ; d d l 0.%X@X] d.<X4.C.G.G.G.U.uXiXy.",
"U.v.n.q./.f.] a.$XXXZ.{.pX~.i F K @ A T H H # # A H 1 + & X X o p X d ~.XXq.{ |.D.u.8Xe.S.C.=X#Xa.] ",
"J.n.n.{ e.+Xa.{ H.}.4.a.fXgXy y 2 , rXNXrXA @ , , 1 g & & .   X o X o qXd.| S.B.U.1Xd.] A.C.F.t.' ;.",
"n.n.q.8X8XU.H.Z.S.XXZ.' ,X5Xi x - H nXnXmXP % U W 1 - g 1 & X X X o d ZX:X7.F.F.G.w.' t.A.A.v.r.r.v.",
"x.x.{ *X%XoXB.M.G.H.V.8.9.uXn > + S t $ P rXT D K . . 1 x , ; ; ;   v LX_.w.I.b.c.w.b.S.A.b.b.S.A.Y.",
"3.I.q.q.}.G.U.U.Z.V.4.;X-XuXxX> + r r . < tXMXrX<   ; c H @ + & X . : ZXsX=X1Xw.t.b.V.S.S.I.g.4.c.c.",
"u.g.L.2.V.q.{.5XiXI.4.4.}.>X9Xl . H nXt 0XAXAXAXmX+ zXmXT % , K = 9XcXVXG.}.D.s.h.1.4.v.A.3Xa.q.n.A.",
"{.,XY.c.x.*.0  X#X=XV.3.C.8XN bX. P NXT tXAXyXAXMXG NXNXD V A W r ZXKX=XD.F.V.G.u.8XuXe.c.F.2.v.x.V.",
"' C.F.b.7.;Xd.7.b.N.V.V.4.h.qXHX= D MXyXyXyXyXMXMXyXyXyXP S T U < SXVXV.4.b.V.U.iX4X-X{ x.x.I.R.q.x.",
"2.2.x.v.] s.@XH.b.c.c.V.b.w.-XcXz D NXAXMXyXeXyXAXAXMXrXS , t y Y sXA.I.uXa.V.XX#X}.7.#.v.v.n.3.2.z.",
"z.t.Y.x.*.0 q.V.V.n.g.R.V.c.A./.cXY P NXMXyXyXyXMXNXrXH + . r 9XsX/.4.,X4Xa.V.N.N.R.!.*.g.w.z.z.L.p.",
"r.;.b.v.e.:Xa.q.3.q.s.5XY.V.t.uXVX9XY NXNXT G T T L J 1 n u n /.,X] A.}.}.q.c.F.C.-X{.9.1Xe.2.r.t.r.",
"R.U.z.z.{ Z.N.C.S.{ q.}.G.t.7.<X5X/.DXmXP % % S - + * - 9XcXkX/.{ { V.N.4.' x.c.F.B.4.I.J.] t.s.] p.",
"{ b.3.u.~.f.Z.V.4.p.7.C.S.=Xe.w.}.uXcXH A # V g - & * * > 9XZX/...3.c.v.' 8.d.w.x.V.3.I.g.8.t.4.a.,X",
"p.*.8.1X5X3XXXV.q.:X:XA.V.M.A.3.c.U.E A C C C L L L # & z m xXuX=Xv.v.3.v.J.=X{ x.n.S.-X4X,X8.v.F.N.",
"J.z.) } w.Z.V.c.*.q.B.F.c.3.f.;XA.I.qXP B C Q Q C B @ I BXlXN /.V.I.uXg.3.v.3.2.x.c.F.C.w.9 5 3.x.n.",
"z.z.2.{ ^ ^ [ r.x.2.x.x.x.2.] iXJ.I.wX0X2 # 2 g 2 * K BXJXHXlXxXT.XX#X6.{.d.2.x.x.x.v.*.} ~.8.K.I.z.",
"l.l.z.L.q.p.2.v.S.t.h.R.L.z.{ ^.a.R.ZXzXU H - g E R zXBXBXDX9X9XsXA.C.G.#Xw...f.u.3.c.x.Y.-X] r.z.2.",
"y.g.r.! y.1X;Xv.z.*.-X4X=Xb.v.`.0.8XBXzXI U c v zXv zXzXlXmXrXD cXdXh.n.F.g.pX5Xd.*.z.v.F.q.6 5 ^ 9.",
"8.=XI.! ' 4.H.A.l.*.w.}.N.V.t.~.7XwX0XE c P y z E 1 v N z 0XrXT Y SXw.3.x.J.B.Z.' ! l.l.*.) 7.y.q.=X",
") *.l.*.] ' 2.l.l.! [ 4.c.x./.w 7XU H z c Y n l r c f o : t T T r cX!.*.z.x.I./.| ! ! ! i.p.l.2.l.m.",
"-.-.-.q.r.q.p.t.r.;.{ u.L.z.n n 9Xc > v R W lXE $ x r > l z W 0Xr n sX{ ! z.Y.>Xq { f.q.L.r.-.! ! ! ",
"-.-.r.-.] ;X-XJ.n.! ] a.S.z.u n E z > K , 1 E N . $ I z d g E N : : P.#.! l.r.9 9 U.>X| -.! ;.p.f.y.",
"=.#.r.-.7 0 { *.*.#.#./ #./.r x K + & r < % % % < = z f f & 2 K > ; ).;.;.#.) 8 *.;.' 5 -.;.I.,X1Xh.",
";.-.&.=.#.' 8 6 0 *.;.r.;.n - 2 2 @ . $ Z eXG T P < = ; ; + , g 1 : b r.r.;.-.! *.] ^ #.! ! x.c.*.6 ",
"S.;.-.#.p.L.-.t.I.;.-.*.;.9X1 - 2 1 @ Z eXeXF F eXT % - o ; t < = e !.-.;.I.#.-.j.A.q.;.p.-.#.^ 6 ) ",
"l.;.-.$./ $.#.n.;.-.=.#.y._.n x K c y eXeXZ $ w % eXrXH f : i i u n 9.$.-.#.$.-.-.! r.U.h.[ $.[ #.=.",
"-.-.&.&.&.t.*.;.#.>.>.} {.dXcXcXcXlXI 0X0XF e y.w 0.wX9Xv e 8././.h.0 ] f.8X/.:.-.-.-.r.' [ =.i.&.%.",
"q./.h.i.%.;.-.=.[ h.R.} 9 `.uXCXKXlXl N N M h #.-...).).b 4 b `.^.9 ^ L.=X3XR.' r.r.%.$.` X.&.i.$.o.",
"g.>XY.K.-.%.%.&.) { m.;.9 7 #.`.KXN a k k j j W.^.h Q.j j a b xXW.$.! l.m.r.7 ) { $.%.#.p.g...X.%.p.",
"6 5 [ $.%.%.%.[ | 0 #.:.a.*.[ ^.PXN O M a a k ^.^.h h k M s M CXW.%.=.;.*.6 | R.f.' %.-.K.L.| ) -.L.",
"` ( ( ` X./ i.[ | r.-.$.&.=.{ >XPXzXl hXl s !.>.:.!.4 N jXs N HX/./ %.;.*./ K.K.5 ^ %./ ) 6 8 / o.X.",
"i.&.o.o.o./ ` +.( ) $.%.>.;.9 9 PXLXN o o d ).,.$.W.u u : o m HXE./ $.X.X.%.%.) 3 } [ X.X.%.i.y.[ o.",
"K.=.>.p.#.o.+.X.$.X.X.>.R.z.,. .PXLXv X   m /.&.o.%.^.e $ X m HX^.$.-.g.y.X.X./ $.r.} ` o.$.*.p.| ` ",
"/ 9 g.t.%.+.>.g.L.=./ p.T.P.ZXLXlX0XU t . l _.,.` W.>.0.i < = bXPX_.^.^.y.^ X.$.$.[ 8./.y.` ( 6 6 _ ",
"( 8 6 8 ` ` i.K.;.$.E._.KXHXFXxXO I Y <   h (.(.E.E.W.q !.I   m vXFXGXHX(.E.%.X.X.#.K.Y.>Xy./ O.O./ ",
"&.o.` +.+.8 / ) 8 ` kXLXGXvXkXhXh v v O O h E.W.E. .>.q b n h k kXkXvXGXHX'.=.r.y.~ 8 / ;.r.^ O.o.%.",
"=.+.+.,.%.6 3 6 ( :.&.` ` +.&.L.+.) 5 ` o.` %.+.+.+.,.t.+.&.,.o.o.=.*.>.' X.%.k.I...( 6 3 3 6 o.:.` ",
"( _ :.i.o._ _ O.+.i.j.=.+.` +.&.O.O._ @.O.` @.O.` +.o.%.` ,.K.+.+.=.;.9 8 +.o.=.k.&._ _ ( 6 ( @.i.} ",
"_ _ +.@.( _ O.O.` k.k.o.8 _ O.O._ O._ @.( _ @._ 8 O._ _ ` ` +.O.( +.=./ _ @.( / =.@.~ O._ @._ ` =.>."
};
