/* XPM */
static char *_40531aa1d5b498cdf16c2a40e359db8MXJAynqvAiOOXCrK[] = {
/* columns rows colors chars-per-pixel */
"50 50 240 2 ",
"   c #000001",
".  c #04050B",
"X  c #07080E",
"o  c #060A11",
"O  c #0B0C13",
"+  c #100F16",
"@  c #0D1118",
"#  c #131319",
"$  c #12141B",
"%  c #0F1923",
"&  c #151A23",
"*  c #1B1B23",
"=  c #201E27",
"-  c #1E232A",
";  c #22252C",
":  c #27282F",
">  c #262A33",
",  c #2A2C34",
"<  c #2B3036",
"1  c #2D323A",
"2  c #32363C",
"3  c #024E38",
"4  c #197E2E",
"5  c #066836",
"6  c #097835",
"7  c #177932",
"8  c #287832",
"9  c #2F3741",
"0  c #353A42",
"q  c #3A3D44",
"w  c #3D4146",
"e  c #3C424A",
"r  c #41444B",
"t  c #464A4E",
"y  c #454B53",
"u  c #484C53",
"i  c #4E5957",
"p  c #4D535B",
"a  c #52565C",
"s  c #52585F",
"d  c #56725A",
"f  c #555B63",
"g  c #5A5D64",
"h  c #5B6766",
"j  c #5D646C",
"k  c #537561",
"l  c #61656C",
"z  c #656C6B",
"x  c #65766D",
"c  c #656C73",
"v  c #6A6E74",
"b  c #6A7475",
"n  c #6D737B",
"m  c #73797C",
"M  c #39B81E",
"N  c #14892F",
"B  c #189C2E",
"V  c #0B8835",
"C  c #168832",
"Z  c #0D9837",
"A  c #139333",
"S  c #169C34",
"D  c #288A2C",
"F  c #348D2B",
"G  c #249B2D",
"H  c #389829",
"J  c #288532",
"K  c #388638",
"L  c #279A35",
"P  c #3A9A31",
"I  c #15A42D",
"U  c #1CA32D",
"Y  c #1DAA2B",
"T  c #0EA436",
"R  c #16A733",
"E  c #1AA532",
"W  c #19B631",
"Q  c #2AAB27",
"!  c #23A52B",
"~  c #24AB2B",
"^  c #2CAC2C",
"/  c #38A729",
"(  c #29B429",
")  c #32B424",
"_  c #39B627",
"`  c #25A736",
"'  c #37A732",
"]  c #37B239",
"[  c #4EA81D",
"{  c #47BB1E",
"}  c #57B91E",
"|  c #66BD1B",
" . c #74B71D",
".. c #479C29",
"X. c #519E2B",
"o. c #489335",
"O. c #48A926",
"+. c #55A827",
"@. c #49B826",
"#. c #57B825",
"$. c #4BA632",
"%. c #55A532",
"&. c #45B831",
"*. c #58B434",
"=. c #69B626",
"-. c #76BA2A",
";. c #6FAD30",
":. c #6AAD38",
">. c #67B536",
",. c #79B738",
"<. c #2FC224",
"1. c #47C41C",
"2. c #4DC21C",
"3. c #54C41C",
"4. c #59C819",
"5. c #5BCA1A",
"6. c #5DD11C",
"7. c #75CE0E",
"8. c #72D40E",
"9. c #7DD30E",
"0. c #6BCC14",
"q. c #68C719",
"w. c #64CA1A",
"e. c #73CC14",
"r. c #78C819",
"t. c #68D115",
"y. c #75D217",
"u. c #7CD413",
"i. c #4BC426",
"p. c #57C227",
"a. c #65C825",
"s. c #75C627",
"d. c #73D12B",
"f. c #7BC536",
"g. c #329145",
"h. c #39AC49",
"j. c #499755",
"k. c #6C8B4D",
"l. c #53AD51",
"z. c #6DAF4E",
"x. c #518B6B",
"c. c #6B8D6F",
"v. c #689968",
"b. c #779672",
"n. c #58A866",
"m. c #6DAB6D",
"M. c #74C35A",
"N. c #82BA2B",
"B. c #85BD39",
"V. c #89D70C",
"C. c #93DB0C",
"Z. c #99DC09",
"A. c #84CD19",
"S. c #92CF1A",
"D. c #87D615",
"F. c #98D915",
"G. c #A2DE0B",
"H. c #A4DD16",
"J. c #97E30C",
"K. c #A7E209",
"L. c #B9EA0B",
"P. c #AAE318",
"I. c #B4E515",
"U. c #87C925",
"Y. c #89D424",
"T. c #98D724",
"R. c #87C336",
"E. c #94D332",
"W. c #A5D928",
"Q. c #A7D839",
"!. c #B6DF31",
"~. c #97E12C",
"^. c #B2E52F",
"/. c #C5F31E",
"(. c #C4EC2B",
"). c #87B942",
"_. c #88BA52",
"`. c #8CB46C",
"'. c #8DA370",
"]. c #91C950",
"[. c #AAD845",
"{. c #AED84B",
"}. c #BBE44B",
"|. c #97CD7A",
" X c #A6D06B",
".X c #CDE949",
"XX c #6F7881",
"oX c #747A82",
"OX c #7A7D83",
"+X c #7C8386",
"@X c #7D838A",
"#X c #7E9587",
"$X c #7AAE8C",
"%X c #83878C",
"&X c #8B978A",
"*X c #858C92",
"=X c #898E94",
"-X c #8D9296",
";X c #8D939A",
":X c #92969B",
">X c #949A9E",
",X c #8FB38D",
"<X c #98A999",
"1X c #A8BB9B",
"2X c #969CA2",
"3X c #9A9DA3",
"4X c #9DA2A4",
"5X c #9DA3A9",
"6X c #9EB6A4",
"7X c #A1A6AC",
"8X c #A5A9AE",
"9X c #ACBCA6",
"0X c #A6ACB3",
"qX c #A9ADB3",
"wX c #ADB1B5",
"eX c #AEB3BA",
"rX c #B1BBB6",
"tX c #B1B5BA",
"yX c #B5B9BE",
"uX c #99CB89",
"iX c #B4D195",
"pX c #AEC5A8",
"aX c #C5DBA6",
"sX c #D8EAB6",
"dX c #B5BAC1",
"fX c #BABEC3",
"gX c #BDC1C6",
"hX c #BEC4C8",
"jX c #C2C5CA",
"kX c #C3C8CB",
"lX c #CACDD2",
"zX c #CDD1D5",
"xX c #CFD4D8",
"cX c #D2D6DA",
"vX c #D4D8DA",
"bX c #DDE5D7",
"nX c #E1EAD3",
"mX c #DADDE1",
"MX c #DDE1E3",
"NX c #E3E7E9",
/* pixels */
"u.y.y.y.Y.D.D.e.q.e.:.;.Z.Z.S..X.XI.G.r.G.K.G.^.P.G.K.K.P.T.F.R.U.F.F.Z.C.Z.F.Q.-.u.V.r.r.u.u.y.y.D.",
"=.a.0.0.D.D.| ,.,...U.P.F.A.r.L.(.I.G.+.r.G.G.G.C.V.C.K.I.T.[..XN.F.F.E.B.D.P.P.+.r.E.[.=.y.y.0.q.0.",
"R.[.f.q.d.u.+.U./.W.r.Z.V.=.[.W.K.G.G.A.S.G.S.T. ...A.K.K.W.(.L.=.V.F.(.N.r.Z.r.=.Y.^.H.+.Y.Y.f.B.+.",
"..P.Q.=.T.u.q...F.J.C.-.,...H.I.G.F.F.s.E.F.S.(.;.+.I.G.H.K.L.H.%.U.Z.C.H -.r.e.u.C.Z.=.H u.Y.Q.-...",
"D q.V.e.u.y.s.| q.V.9.+.}.,.+.Z.C.T.H.=.^.H.C.L.F.F.K.!.!.H.G.D.Q.T.V.| -.!.=.Y.R.r.V.=.r.e.D.D.H @.",
"w.=.R.s.e.0.U.T.e.f.y.O. .I.D.V.V.r.G.| U.}.sXnXnXsX}.P.K.!.W.Z.Z.V.U.R.S.Z.| F.U.q.9.r.s.+.0.w.@.3.",
"p.:.^.^.Y.0.q.F.=.{.{.e.[ A.Z.C.C.V.T.aXNXMXvXxXzXMXbXvXbXsX[.T.D.S.}.!.r.A.e.V.r.u.E.Q.%.H 0.5.p.#.",
"3.F D.C.V.7.0.9.#.F.^.T.V.q.r.V.V.S.iXvXgXwX4XOXc *XyXzXxXzXvXbX XT.H.C.7.r.r.u.9.D.F.s.D } w.R.[.:.",
"5.H O.8.| R.r.0.} r.J.C.e.B.{.R.Y.].&X-X*Xv l l l s z OX+X-XwXzXkXaXiXA.R.{.).| 9.9.0.#.=.s.q.D.r.F ",
"3.5.@.5.O.U.A.,.R.q.u.9.| -./.Q.).'.%X%Xf 2 u g v v g r ; r n =X3X<X`._.}./.U.+.=.q.e.y.D.T.q.q.#.#.",
"2.w.t.3.O...} U.!.d.8.q.O...K.T.&X%Xv g r w u u p h q 2 t r r p n v m `.P.J.F ;.W.} 0.y.y.e.s.[.Q.%.",
"s.3.5.O.z.:.D =.K.D.q.B.].o.;.'.z s r 2 q r 2 ; ; ; ; > t 2 , t f a a x ,.%.H C.r.:.).%.w.0.Y.F.=.F ",
"y.5.5.H X.H.=.H u.V.} =.I.[.k.z r < 2 , , > ; , * . O # + * : , 2 u g a z v.s.9.s.Q.:.F w.0.0.#.D _ ",
"5.5.O.).).s.u.q.q.D.q.D ;.k.m l , ; 2 , $ # # + X O $ O O * ; ; 1 p ;X3X=X6X Xd.y.#.D #.w.w.3.@.@.3.",
"3.3.H U.P.F.9.8.y.u.0.v.m OXs , ; ; * + O . O O . O * * = # # * q 1 c +Xl %X9X|.a.@.5.q.w.5.5.t.w.y.",
"{ a.O.O.V.e.s.s.q.t.z.>X%Xc > 1 > : + + X O X     O   . X O O $ , y 0 OXc t a <X|.a.w.y.a.a.>.} 5.6.",
"+.>.p.{ w.O.B.!.[.].7Xv c p l u ; # + O + X       .   . X . X * ; 1 r r g a w OX9Xz.#.3.t.~.=.O.5.w.",
"B.T.y.5.3./ 8 A.W.1X*X%X@Xg l < ; ; O O X               . . X O * * ; ; u OX+X%X<XpX X%.5.t.{ 3.3.t.",
"D 0.t.5...R.;...M.0X-XOXg e 0 2 2 * O .                     . O # * > , 2 a @X4X7XjXiXz.5.3.a.f.O.3.",
"{ { 3.3.F =.J.u.pX7X:XoXp y e r - $ X                         X - ; 0 0 q p c -X7XjXkX,Xa.3.5.{ { 2.",
"2.#.d.3./ 8 O.].fX3XOXg g a u 0 @ # .                         . # ; 1 2 0 e p f @XqXlXpXuX#.2.2.p.*.",
"@.@.3.3.$.E.,.hXfX:Xn p g p y : - $ .                         X O & : , y p j c v *XjXrXaX>.{ @.#.@.",
"f.d.2.2.H q.].cXjX=Xn m l f r ; ; $ .                         . O & - < r p n *X2X5XzXhXiXj.#.-.F *.",
"H 3.{ %.k.z.`.lXqX=Xm n j f e 1 - @ .                         X o & > < q s n oX2XeXxXvXpXv.#.} =.T.",
"*./ o.Q.^. X`.jX2X@XOX=Xg e 1 2 ; $ X                         X $ * - q e u j *X7XqXfXyXiX Xo.3.t.8.",
"y.2.C J +.`.'.tX8X5X5XoXf f y e < * O                         . @ ; < e y s oX@X2XfXtX4X,Xj.J 2.3.5.",
"2.2.{ H C v.#XfXeX>X2XoXj n f p 2 - O                         O & 1 9 e f j j @X2XqXfXwX6X`.o.p.a.2.",
"1.1.2.p.$.`.<XjX0X;X5X@Xn n j p q ; @                         @ - 0 y p j v n ;X2X0XjXwXpX{.P @.2.{ ",
"%.>.@._ %. X&XeXeX0XwX=XOXoXc j y < & X                     . $ 1 e f j XX*X:X2X%X8XkXwXiXz.5 4 C o.",
"o.Y.a.M D _.b.3XeX5XeX0X7X;X@Xc s e > $ X                 . @ ; e p g n ;X5X5X8X;XyXyX>X,Xj...%.O.Y.",
"C / { / F j.c.%XwXdXfXfXeX5X;Xc j s q ; $ X             . O ; q u j c XX*X5X:X7XeXeX3X%XuXM.1.{ 1.5.",
") ) ) / @.$.b.n 2XhXkXgX8X;X*Xn c n p 0 > & O o . . X @ $ - 0 y j @XoX%X;X0XtXeXgX8X*X&XuX*.) M M M ",
") ) @.) F R. Xn ;XgXhXwX3X5X2X;X*X*Xn p e 9 - % & % & > 9 r p l +X@X@X;X-X0XgXkXjX8X+X,XM.) _ *.:.$.",
") Q @.) 7 8 l.&X*X7XdX3X*XqXeX0X5X5X@Xc g p p e 0 e y y p l c n =X>X7X8XyXgXgXgXfX3X#X$X_ _ a.~.Q.,.",
"_ ) Q ( ^ D 7 c.j oX5XtXyXjXhXeXyX8X5X;X*XoXl j c v oXn n @X*X:X;X8XfXhXlXzXzX0X-X*Xb.l.) _ 5.5./ 5 ",
"w._ ) Q *.p.) z.b.n -XqXlXzXfXlXeXqXwXtX7X>X:X-X-X-X>X:X>X3X4X5X3XqXqXkXkXyXyX5X@Xb.z._ *.) Q C 5 N ",
"1._ ) Q B ! / a.m.b oX3XkXhXkXcXcXgXyXfXtXtX0XqX8X4X7X4X5X8XtXyXjXlXhXtXkXyX5X-Xc.l.@.s.,.G ! G ~ ( ",
"Q Q Q Q ^ p./ _ l.v.b oX3XyXzXvXcXkXtXkXgXjXdXyXtXwXdXfXjXjXjXjX7XfXzXdXtX>Xm x j.) ) @.D G ) &.^ ~ ",
"O.z.,.$.~ _ ) ) L _.b.z oX3XfXzXcXcXcXvXlXlXzXxXzXkXlXxXcXcXlXlX7XlXcXjX8X=Xc.d @.@.~ ! A U ^ &.! Y ",
":.Y.d.i.( ~ ~ ^ A P d.v.j v -XqXlXcXmXmXcXkXlXNXMXcXjXmXMXvXcXvXlXlXkX7X&Xb.k g.P Q Q ^ *.>.P U ~ *.",
"5 7 G ! Q Q ~ G K 8 / l.m.x m >X5XfXvXMXmXcXxXMXNXjXzXNXNXmXcXcXkX3X%Xx c.k K f.:.D Q ) i.p.K A ) p.",
"A V V A U B @.G K @.Q ! ] l.c.z m :XyXtXwXjXcXmXNXcXmXvXlXdX8X4X>X+Xd c.l.L i.i.7 N ! B C 5 5 B ~ ! ",
"&.^ Y Y Y B A E V N ! ! ' &.j.c.h g oX:X2X:X7XyXwXqX7X7X-X-X%Xv i c.m.h.U ~ ~ C 3 J G U U ~ &.$.G U ",
"i.Q ' *.^ U I U ! U U ' f.1.Q g.j.x.i u h h h g v n l n +Xz s k v.l.Q >.$.B U B Q @.8 A U ! / @.K A ",
"B 7 >.@.~ E ' >.p.( B +.6.1._ ~ Y ` g.j.m.b.c.h x b h d c.v.n.z.z.B ~ _ $.C U ~ ! G o.z.$.A V 5 5 Z ",
"V 6 5 6 S S &.i.) ! N G ) G 4 V U U $.&.] h.h.l.x.n.n.n.l.h.] ^ G U Q C 5 A ! U U Q i.d.E.$.B I I B ",
"^ R S I E 7 B C 6 V 6 3 3 3 C ^ ~ G s._ Y E ` ` L ` ] L A U Y Y Y ~ ) a.G Y ( @.$.N 6 G _ @.C I I ~ ",
"( R E ] ` 5 3 5 V ` ^ A A E ^ p.R A 4 A R S ~ Y R E _ @.I ^ _ U Y ( / / D U ~ ) a.P V 5 3 3 5 Y G A ",
"V Z ^ &.R Z Z R S &.<.( E S E ^ R T Z R R A W R S R E ~ S ' i.I B ( _ 7 6 I I ( <.^ Z T V 5 V Y &.J ",
"T Z E W V Z R R S ( <.E 6 Z R T Z T Z W V A W A 6 R Z Z Z S R S V E ( S Z R V B W W A T Z T Z S ( ' "
};
