/* XPM */
static char *_000[] = {
/* columns rows colors chars-per-pixel */
"50 50 192 2 ",
"   c None",
".  c #0F0613",
"X  c #140514",
"o  c #1B0615",
"O  c #1E0A16",
"+  c #1F0619",
"@  c #1E0918",
"#  c #240C17",
"$  c #24071A",
"%  c #250A19",
"&  c #2B0B1A",
"*  c #320D1C",
"=  c #380F1A",
"-  c #2D1119",
";  c #34131C",
":  c #3B141D",
">  c #35181C",
",  c #3C191E",
"<  c #370F20",
"1  c #3A0E21",
"2  c #3D1322",
"3  c #3E1921",
"4  c #42151E",
"5  c #43191F",
"6  c #491C1F",
"7  c #511E1F",
"8  c #441422",
"9  c #4A1624",
"0  c #451B21",
"q  c #4C1C22",
"w  c #531D24",
"e  c #5A1E26",
"r  c #561B2A",
"t  c #4C2224",
"y  c #4E292A",
"u  c #452624",
"i  c #542325",
"p  c #5B2426",
"a  c #522926",
"s  c #5C2927",
"d  c #562628",
"f  c #5D2429",
"g  c #552D28",
"h  c #5D2B29",
"j  c #56322D",
"k  c #5D312C",
"l  c #622527",
"z  c #692727",
"x  c #622927",
"c  c #692A27",
"v  c #632529",
"b  c #6A262A",
"n  c #642C2A",
"m  c #6B2D2B",
"M  c #722E2C",
"N  c #792E2E",
"B  c #65322C",
"V  c #6B332D",
"C  c #66382F",
"Z  c #6C392E",
"A  c #73332D",
"S  c #7A352E",
"D  c #74392E",
"F  c #7B392F",
"G  c #6B3630",
"H  c #623830",
"J  c #6C3B31",
"K  c #743630",
"L  c #7B3530",
"P  c #743B32",
"I  c #7C3C32",
"U  c #6F4135",
"Y  c #6F4B3D",
"T  c #754334",
"R  c #7C4335",
"E  c #7F4935",
"W  c #7C4739",
"Q  c #75483C",
"!  c #7B4A39",
"~  c #7F523B",
"^  c #803A2F",
"/  c #893C2F",
"(  c #823731",
")  c #833C32",
"_  c #893D33",
"`  c #873C39",
"'  c #893F38",
"]  c #834335",
"[  c #8C4435",
"{  c #834937",
"}  c #8B4936",
"|  c #824539",
" . c #8D4539",
".. c #844B3A",
"X. c #8B4B3A",
"o. c #934536",
"O. c #944936",
"+. c #994A37",
"@. c #934739",
"#. c #984639",
"$. c #944B3A",
"%. c #9B4D3A",
"&. c #84523D",
"*. c #8C523D",
"=. c #94533D",
"-. c #9C523D",
";. c #96583F",
":. c #9D5A3E",
">. c #A24F3B",
",. c #A3543D",
"<. c #A9563E",
"1. c #A5593F",
"2. c #AA593F",
"3. c #B05C3F",
"4. c #914F40",
"5. c #865541",
"6. c #8D5644",
"7. c #955740",
"8. c #9C5541",
"9. c #945A43",
"0. c #9C5B42",
"q. c #A45741",
"w. c #A95642",
"e. c #A45B42",
"r. c #AB5C42",
"t. c #A55F49",
"y. c #B15E42",
"u. c #916043",
"i. c #9D6145",
"p. c #926048",
"a. c #9F6448",
"s. c #9F684A",
"d. c #A46245",
"f. c #AD6345",
"g. c #A36349",
"h. c #AC6549",
"j. c #A46B4B",
"k. c #AC6A4A",
"l. c #A36944",
"z. c #B36345",
"x. c #B96546",
"c. c #B36946",
"v. c #BB6947",
"b. c #B16549",
"n. c #BB6749",
"m. c #B46B4B",
"M. c #BB6C4B",
"N. c #B3704C",
"B. c #BF734F",
"V. c #BC724D",
"C. c #A56E51",
"Z. c #B36D50",
"A. c #B47551",
"S. c #BC7651",
"D. c #BD7B54",
"F. c #B97B58",
"G. c #C26947",
"H. c #C06E4B",
"J. c #C4734D",
"K. c #C8734F",
"L. c #CB794F",
"P. c #C37551",
"I. c #C47A53",
"U. c #CB7C54",
"Y. c #C47F5A",
"T. c #D37D52",
"R. c #BC815B",
"E. c #C78255",
"W. c #CC8055",
"Q. c #C3835A",
"!. c #C9875B",
"~. c #CC8359",
"^. c #C78A5C",
"/. c #C8895E",
"(. c #D28255",
"). c #DA8657",
"_. c #D78857",
"`. c #D38559",
"'. c #D68C5B",
"]. c #DB8C5D",
"[. c #D5915D",
"{. c #D8915E",
"}. c #E1935F",
"|. c #D48960",
" X c #DD9361",
".X c #DF9A61",
"XX c #E49562",
"oX c #E39C65",
"OX c #EC9E68",
"+X c #E89D65",
"@X c #EEA469",
"#X c #EEAA6D",
/* pixels */
"  I.U q ; s f.R u 9.A.&.- n h.C ; C r.s * K h.t t P d g ..{ B.a Y C.F.j ; I -.> 5 :.:.> h n h a T   ",
"S M.t.B h -.z.} =.].].U.x %.1.Z P b.A d m <.1.S =.I.h Z %.f.v.I Y.XXXXi.c >.+.i [ y.2.A M.[ h B =.h ",
"L v n B.e.o.o.s f -.<.,.a Z P { i B *.A.B n p #.M A P I.+.%.[ 0 ' w.z.] t B { t n ) ) q J s j.0.n l ",
": 5 | 1.-.[ x & < w w 0 a.!.E V { k.} -.*.N.i w : h $.r.-.[ q % 9 r r q i.h.F q q q : 9.!...{ I 0 % ",
"- [ r.+.Z.D.I I t j t Z $.M.$.7.o.r.$.m.f.1.@.0 n ,.1.-./.i.) V j y C E.c.,.,.] G B } q.B.$.=.*.s ; ",
"; I o._ 4.t.B _ f.U.K f f >.o.,.,.,.q.U.e.) 2.D n ] %.R k.{ A %.U.V.P c.] [ ,.e.`.h.o.%.%.h.z.,.q 5 ",
"C N.n p 5 x D 1.r.-.n % q ( b ) %.,.-._ B d.I E ^.=.n 5 s n O.r.r.$.p 4 T 0.h.M.n.) m O.O.) ) ] B # ",
"p P E R A r.2.r.,.o.m h : 0 q q L o.S *.A.z.n x e.T =.Z %.z.2.2.,._ m n m.~.-.%.8.=.x f S S q R B.m ",
"- I M.v.I r.q.1.o.b.X.@.Z A.=.: 0 i 4 8.J._ -.n E e._.h.X.b.r.-.%.m. .[ I ] %.) N.k.B : i V.-.v n ; ",
"5 #.1.@.] r.b.b.[ c.V.=.R ] I S q V : 0 w S %.I V.L.L.r.,.b.B.w.@.I.0.n ] V n B T ;.R.d.A S ) i < % ",
"& e w { W.z.1.J.q.M._.(.P.S f.r...T I p { J.%.m.r.,.-.,.,.%.z.U.q.U.U.r.n -.=.=.].}.}. X=.A q 6 $ X ",
"d E ; n  .L [ L m z.M.z.,.S w.X.{.~.7.x +.n.<.<.$.j.k.*.m m ,.) M x.x.w.M ,.] ) y.G.K.z.B K | T V q ",
"M -.5 < < 8 | d w ( _ L n X.+.S z.v.J.X...] _ n j.#X@X[.h n m w q _ _ m K 1.A l z L _ m 0.D.e.8.n 8 ",
"& B n B ! h U.0.h T h R Z J.x.v.<.2.o.z.`.$.s : @.`.(.K.D -.n n B s { h c.J.M.$.8 < s 5 _ z.,.%.m o ",
"t x.,.,.(.K n h t.h.B [ n <.2.r.,.8.8.,.y.o.r.m v @.@.) C ..q p -.I m.Z %.<.y.,.q i w W d.S o.X.0.> ",
"S o.,.m.,.%.[ h G { 7.A.V ) L A t.l S ,.M z L 5 * 2 2 = 8.J.%.[ 7.T I.| L #.A i J -.l I =.p q ] J.m ",
"9 w O.z.o.1.r.[ c.J.r.r.A p P &.{ ;.x n w h.:.h Q y 0 : o.y.v.v.U.b.z.@.w f X.E c.M.,.s B h.] s w * ",
"& i f q s ] c.f.J.2.r.r.m.1.r.x.x.H.r.] ] J.x.q.XXd.l 7 F ,.K.1.+.r.x.1.....e.r.,.2.f.t.b.z.x.-.q # ",
"8 L _ ] A.i.A %.1.o.[ %.r.+.r.r.x.+.,.S v L A f #.A m 0.A.Z m v d.x.,.S m.S._ ,.[ b n m.t.S <.,.n * ",
"a h.A A P.m.x b { R.Q.9.V =.%.%.=.p.) n q n Z s q ] [ e.W.I A p ,.<.z.h.S _ <.) V I q w 5.{ A s q # ",
", n ) %.( o.<.D k.OXOXU.I ,.x s m.'.R s.g.A v.,.A ,.%.G n [ G.o.) %.v.`.@.) =.G x F O.] (.M.s S s # ",
") 8.S @.g.t.%.m L z.v.-.h J p 0 #.w.G P.T.[ %.] u.9.K E.0._ <.[ *.X.o._ 6.6.d.h.} ,.o.m w.+.q s s n ",
"9 w : n (.m.d ; 9 v f i A. XX.w 8 q : _ >.f 0 Z _.J.d n f v n =.+Xm.q 0 A.P.V D `.I.) 4 8 8 J h.h - ",
"@ 3 I x v B :.{ ; & E e.r.H.2.r.K G ] w p } $.m v m =.V 5 { l.I z.1.O.n S _ e.q.M.z.,.I B I O.2.o.0 ",
"K } ) S m ,.,.r.i.n o.2.1.,.<.%.S.|.[ X.A.r.v.,.@.f.1.w.D [ J.b A +.@.W n v S 1.2.,.@.U.U.-.O.,.t.3 ",
"q B ..P m L w n L -.z.,.+.%.<.m I  .: R g.V +.,.%.@.A x.e.w v 0 9.9.*..X*.x s L %.) s +.@.m ) _ $.3 ",
"X.=.(.U.V B k.V s X.o.,.M e w B k.] a h ..A.] i R n L [ Z B I ] U.~.I ] m -.) d *.V q i P d i q % . ",
"i S ,. .n 1.H.[ :.m.v z h 9.k X.).m.q $.n.m.M.m c.I v I Q.e.2.3.,.+.0.=.) 2.$.R _.c.: $.U.] =.C C t ",
"f l p x q L ) f 8 n ! s A `.$.0 P P i q I V ) 4 w x U s  .n ) >.,.%.%.1.,.z.%.i [ S q i P s V s ] n ",
"# B K O.P k.T 5 ; 0.(.y.%.1.<.D k.`.z.V b.} 8 C d.B.].=.} 0.Z I S _ z o.,.1.%.n B B M.{ h.m.A V i @ ",
"# ] [ &.0.v.z.O.p r.c.1.,.<.z.I  .-.-.h.%.%.[ 1.J.K.U.m.M.z.z.B.s q k f S L p B P.q.M.f.B.M.,.-.[ ; ",
":.e.D W.f.^ O.I q %.2.%.%.1.%.s 8 9 n P.r.%.f.`.z.%.+.z.v.,.,.O.S I W.P k k ] A e.q.$.-.r.$.I.h.m 4 ",
"B @.d n i Z R I.{ v L N m [ V T C 0 d v _ M.z.1.} =.7.[ S S ,.%._ L I h U.S.A l X.[ ..A F f.-.) d - ",
"2 t X.=.I V.-.%.] *.K h 5 k a e.X.[ -.K +.%.<.) k.oXoXD.i I ) S A J.U.X.O.,.) X.d.S.].~.I A ) n :.m ",
"B r.x.f.[ ,.-.O.F =.T D E _.*.q p ] h.h.S o._ i $.J.U.v.n [ Z J F y.J.r.[ @.L } J.P.J.H.) f I a 5 ; ",
": _ O.+.o.S S c ..a.D.g.V r.[ n 7.E.[ X.0.Z n t f L ) m k J 7.].X.b _ S h.m.i z ( @.,.%.L x I.h.t - ",
"; P E B S A 0 : 7.(.U.M.S +.,.$.-.M.} } J.] r.$.0 3 0 0 $.v.A K 0 t d 5 f.b.i 4 8 n V t W C I A m 4 ",
"~ [.'.j.q i s q m q.w.[ i ) %.=.-.@.S i w m -. .e.T i m [ 1.o.A q d.c.A [ +.-.B 0 d.h.C P.1.q.e.q # ",
"I M.P.r.K k.V : 8 f w 0 *.t.$.f.$.n = 0 5 J I r.y.-.0 q F [ o./ s %.%.m ) q.-.1.} V K p -.o.[ I t @ ",
"9 S L m E q.) B & & ; D J.B.$.) A p P K { I.E 0.} @.-.i x p N n ! K p q c v I %.) 4 & ; S S x 8.t.w ",
"% : : : @.] $.8.J H i #.) +.+.A I A V p A r.) m q @.b.P P q : 0 :.D $.:.q t q w ) $.I : 8 8 0 I m 5 ",
"# A @.) q K ,.I t.h.d 8 q ( _ P P *.0.t p ) ) q B q._ X.f.L [ Z q ] r.%.p 0.n 0 S o.[ k H 0.E , : : ",
"; _ o.+.n K I 0 i  .} 0 * e 9 x b.,.b.h.s q 8 & A +.) f ( [ O.[ p ) ) w W 8.%.b.B l q *.r.-.b.:.w X ",
"> p m m q : i 4 h 8._ A , 3 * x ) ) ) _ S x i.a 0 v w , I ) ) b 0 4 d 5 ] $.@.%.V ; ; A L ) ) ) n # ",
"D V 0 K k.X.[ S X.t.n S 8.-.q w M S v f m i $.h *.d.; a m.P m =.k.T $.I x p $.[ ) V : v M A v q i i ",
"; C J B f...l b : 5 K [ -.L n 0 : 0 q : , J P 5 =.8.w : 0 s X.$.h.P M M V s [ ) ) m h * 8 q 8.7.; @ ",
"J c.m.Z , a x b : 0 d S n ] n i S V 5 ; *.J.M.X.: d s 9 0 q A S ] a p w =.X.@.K p I w i L n K I : # ",
"q _ @.S s r.-.S 0 , : l i [ t.Z M _ A : A @.@.L s q.$.p , : e w ] e.d.h A [ S w s :.X.s ) s h t J 5 ",
"* v b p 0 ( @.A t R 0 ; q ` $.P 5 N v & 9 v m f 0 ) [ i T a 0 # l ) $.x 4 m p & m X.@.0 l 5 B p L p ",
"  & % X X * 8 ; o & ; & + * 8 * X % $ . + $ & $ o * 8 @ # # 3 X $ & 8 % o % + X % = 8 o + + + X &   "
};
